<svg width="40" height="40" viewBox="0 0 40 40" fill="none" xmlns="http://www.w3.org/2000/svg">
<g clip-path="url(#clip0_9221_246)">
<rect width="40" height="40" rx="20" fill="#BDBDBD"/>
<path d="M19.3343 19.4414V20.3398C19.3343 21.4076 19.2008 22.3646 18.9339 23.2109C18.667 24.0573 18.2829 24.7767 17.7816 25.3691C17.2803 25.9616 16.678 26.4141 15.9749 26.7266C15.2783 27.0391 14.4971 27.1953 13.6312 27.1953C12.7913 27.1953 12.0198 27.0391 11.3167 26.7266C10.6201 26.4141 10.0146 25.9616 9.50031 25.3691C8.9925 24.7767 8.59862 24.0573 8.31867 23.2109C8.03872 22.3646 7.89875 21.4076 7.89875 20.3398V19.4414C7.89875 18.3737 8.03547 17.4199 8.30891 16.5801C8.58885 15.7337 8.98273 15.0143 9.49055 14.4219C9.99836 13.8229 10.6006 13.3672 11.2972 13.0547C12.0003 12.7422 12.7718 12.5859 13.6116 12.5859C14.4775 12.5859 15.2588 12.7422 15.9554 13.0547C16.6585 13.3672 17.2607 13.8229 17.762 14.4219C18.2698 15.0143 18.6572 15.7337 18.9241 16.5801C19.1976 17.4199 19.3343 18.3737 19.3343 19.4414ZM17.4691 20.3398V19.4219C17.4691 18.5755 17.3812 17.8268 17.2054 17.1758C17.0361 16.5247 16.7855 15.9779 16.4534 15.5352C16.1214 15.0924 15.7145 14.7572 15.2327 14.5293C14.7575 14.3014 14.2171 14.1875 13.6116 14.1875C13.0257 14.1875 12.4951 14.3014 12.0198 14.5293C11.5511 14.7572 11.1474 15.0924 10.8089 15.5352C10.4769 15.9779 10.2197 16.5247 10.0374 17.1758C9.85513 17.8268 9.76398 18.5755 9.76398 19.4219V20.3398C9.76398 21.1927 9.85513 21.9479 10.0374 22.6055C10.2197 23.2565 10.4801 23.8066 10.8187 24.2559C11.1637 24.6986 11.5706 25.0339 12.0394 25.2617C12.5146 25.4896 13.0452 25.6035 13.6312 25.6035C14.2432 25.6035 14.7868 25.4896 15.262 25.2617C15.7373 25.0339 16.1377 24.6986 16.4632 24.2559C16.7952 23.8066 17.0459 23.2565 17.2152 22.6055C17.3844 21.9479 17.4691 21.1927 17.4691 20.3398ZM27.5407 21.4238H23.7419V19.8906H27.5407C28.2764 19.8906 28.8721 19.7734 29.3278 19.5391C29.7835 19.3047 30.1156 18.9792 30.3239 18.5625C30.5387 18.1458 30.6462 17.6706 30.6462 17.1367C30.6462 16.6484 30.5387 16.1895 30.3239 15.7598C30.1156 15.3301 29.7835 14.985 29.3278 14.7246C28.8721 14.4577 28.2764 14.3242 27.5407 14.3242H24.1813V27H22.2966V12.7812H27.5407C28.6149 12.7812 29.5231 12.9668 30.2653 13.3379C31.0075 13.709 31.5707 14.2233 31.9548 14.8809C32.3389 15.5319 32.5309 16.2773 32.5309 17.1172C32.5309 18.0286 32.3389 18.8066 31.9548 19.4512C31.5707 20.0957 31.0075 20.5872 30.2653 20.9258C29.5231 21.2578 28.6149 21.4238 27.5407 21.4238Z" fill="white"/>
</g>
<defs>
<clipPath id="clip0_9221_246">
<rect width="40" height="40" rx="20" fill="white"/>
</clipPath>
</defs>
</svg>
