<svg width="240" height="72" viewBox="0 0 240 72" fill="none" xmlns="http://www.w3.org/2000/svg">
<path d="M30 28.5C25 28.5 20.73 31.61 19 36C20.73 40.39 25 43.5 30 43.5C35 43.5 39.27 40.39 41 36C39.27 31.61 35 28.5 30 28.5ZM30 41C27.24 41 25 38.76 25 36C25 33.24 27.24 31 30 31C32.76 31 35 33.24 35 36C35 38.76 32.76 41 30 41ZM30 33C28.34 33 27 34.34 27 36C27 37.66 28.34 39 30 39C31.66 39 33 37.66 33 36C33 34.34 31.66 33 30 33Z" fill="black" fill-opacity="0.54"/>
<path d="M97 32L93 36H96C96 39.31 93.31 42 90 42C88.99 42 88.03 41.75 87.2 41.3L85.74 42.76C86.97 43.54 88.43 44 90 44C94.42 44 98 40.42 98 36H101L97 32ZM84 36C84 32.69 86.69 30 90 30C91.01 30 91.97 30.25 92.8 30.7L94.26 29.24C93.03 28.46 91.57 28 90 28C85.58 28 82 31.58 82 36H79L83 40L87 36H84Z" fill="black" fill-opacity="0.54"/>
<path d="M160 33.74L152.81 33.12L150 26.5L147.19 33.13L140 33.74L145.46 38.47L143.82 45.5L150 41.77L156.18 45.5L154.55 38.47L160 33.74ZM150 39.9L146.24 42.17L147.24 37.89L143.92 35.01L148.3 34.63L150 30.6L151.71 34.64L156.09 35.02L152.77 37.9L153.77 42.18L150 39.9Z" fill="black" fill-opacity="0.54"/>
<path d="M217 30.41L215.59 29L210 34.59L204.41 29L203 30.41L208.59 36L203 41.59L204.41 43L210 37.41L215.59 43L217 41.59L211.41 36L217 30.41Z" fill="black" fill-opacity="0.54"/>
</svg>
