<svg width="170" height="44" viewBox="0 0 170 44" fill="none" xmlns="http://www.w3.org/2000/svg">
<g clip-path="url(#clip0_9176_27836)">
<rect x="130" y="2" width="40" height="40" rx="20" fill="#BDBDBD"/>
<path d="M149.139 21.373V23.0723H139.393V21.373H149.139ZM145.174 17.2227V27.5742H143.368V17.2227H145.174ZM153.937 21.002H155.226C155.858 21.002 156.379 20.8978 156.789 20.6895C157.205 20.4746 157.515 20.1849 157.716 19.8203C157.925 19.4492 158.029 19.0326 158.029 18.5703C158.029 18.0234 157.938 17.5645 157.756 17.1934C157.573 16.8223 157.3 16.5423 156.935 16.3535C156.571 16.1647 156.108 16.0703 155.549 16.0703C155.041 16.0703 154.591 16.1712 154.201 16.373C153.817 16.5684 153.514 16.8483 153.293 17.2129C153.078 17.5775 152.97 18.0072 152.97 18.502H151.164C151.164 17.7793 151.346 17.1217 151.711 16.5293C152.075 15.9368 152.586 15.4648 153.244 15.1133C153.908 14.7617 154.676 14.5859 155.549 14.5859C156.408 14.5859 157.16 14.7389 157.804 15.0449C158.449 15.3444 158.95 15.7936 159.308 16.3926C159.666 16.985 159.845 17.724 159.845 18.6094C159.845 18.9674 159.761 19.3516 159.591 19.7617C159.429 20.1654 159.172 20.543 158.82 20.8945C158.475 21.2461 158.026 21.5358 157.472 21.7637C156.919 21.985 156.255 22.0957 155.48 22.0957H153.937V21.002ZM153.937 22.4863V21.4023H155.48C156.385 21.4023 157.134 21.5098 157.726 21.7246C158.319 21.9395 158.784 22.2259 159.123 22.584C159.468 22.9421 159.709 23.3359 159.845 23.7656C159.989 24.1888 160.06 24.612 160.06 25.0352C160.06 25.6992 159.946 26.2884 159.718 26.8027C159.497 27.3171 159.181 27.7533 158.771 28.1113C158.368 28.4694 157.892 28.7396 157.345 28.9219C156.799 29.1042 156.203 29.1953 155.558 29.1953C154.94 29.1953 154.357 29.1074 153.81 28.9316C153.27 28.7559 152.791 28.502 152.375 28.1699C151.958 27.8314 151.632 27.418 151.398 26.9297C151.164 26.4349 151.047 25.8717 151.047 25.2402H152.853C152.853 25.735 152.961 26.168 153.175 26.5391C153.397 26.9102 153.709 27.1999 154.113 27.4082C154.523 27.61 155.005 27.7109 155.558 27.7109C156.112 27.7109 156.587 27.6165 156.984 27.4277C157.388 27.2324 157.697 26.9395 157.912 26.5488C158.133 26.1582 158.244 25.6667 158.244 25.0742C158.244 24.4818 158.12 23.9967 157.873 23.6191C157.625 23.235 157.274 22.9518 156.818 22.7695C156.369 22.5807 155.838 22.4863 155.226 22.4863H153.937Z" fill="white"/>
</g>
<rect x="97" y="1" width="42" height="42" rx="21" fill="#BDBDBD"/>
<rect x="97" y="1" width="42" height="42" rx="21" stroke="white" stroke-width="2"/>
<path d="M118 22C120.21 22 122 20.21 122 18C122 15.79 120.21 14 118 14C115.79 14 114 15.79 114 18C114 20.21 115.79 22 118 22ZM118 24C115.33 24 110 25.34 110 28V30H126V28C126 25.34 120.67 24 118 24Z" fill="white"/>
<rect x="65" y="1" width="42" height="42" rx="21" fill="#BDBDBD"/>
<rect x="65" y="1" width="42" height="42" rx="21" stroke="white" stroke-width="2"/>
<path d="M86 22C88.21 22 90 20.21 90 18C90 15.79 88.21 14 86 14C83.79 14 82 15.79 82 18C82 20.21 83.79 22 86 22ZM86 24C83.33 24 78 25.34 78 28V30H94V28C94 25.34 88.67 24 86 24Z" fill="white"/>
<rect x="33" y="1" width="42" height="42" rx="21" fill="#BDBDBD"/>
<rect x="33" y="1" width="42" height="42" rx="21" stroke="white" stroke-width="2"/>
<path d="M54 22C56.21 22 58 20.21 58 18C58 15.79 56.21 14 54 14C51.79 14 50 15.79 50 18C50 20.21 51.79 22 54 22ZM54 24C51.33 24 46 25.34 46 28V30H62V28C62 25.34 56.67 24 54 24Z" fill="white"/>
<rect x="1" y="1" width="42" height="42" rx="21" fill="#BDBDBD"/>
<rect x="1" y="1" width="42" height="42" rx="21" stroke="white" stroke-width="2"/>
<path d="M22 22C24.21 22 26 20.21 26 18C26 15.79 24.21 14 22 14C19.79 14 18 15.79 18 18C18 20.21 19.79 22 22 22ZM22 24C19.33 24 14 25.34 14 28V30H30V28C30 25.34 24.67 24 22 24Z" fill="white"/>
<defs>
<clipPath id="clip0_9176_27836">
<rect x="130" y="2" width="40" height="40" rx="20" fill="white"/>
</clipPath>
</defs>
</svg>
